<?xml version="1.0" encoding="UTF-8" standalone="no"?>
<!-- Created with Inkscape (http://www.inkscape.org/) -->

<svg
   xmlns:dc="http://purl.org/dc/elements/1.1/"
   xmlns:cc="http://creativecommons.org/ns#"
   xmlns:rdf="http://www.w3.org/1999/02/22-rdf-syntax-ns#"
   xmlns:svg="http://www.w3.org/2000/svg"
   xmlns="http://www.w3.org/2000/svg"
   xmlns:xlink="http://www.w3.org/1999/xlink"
   xmlns:sodipodi="http://sodipodi.sourceforge.net/DTD/sodipodi-0.dtd"
   xmlns:inkscape="http://www.inkscape.org/namespaces/inkscape"
   width="300mm"
   height="300mm"
   viewBox="0 0 300 300"
   version="1.1"
   id="svg8"
   inkscape:version="0.92.4 (5da689c313, 2019-01-14)"
   sodipodi:docname="icon.svg">
  <defs
     id="defs2">
    <linearGradient
       inkscape:collect="always"
       id="linearGradient4668">
      <stop
         style="stop-color:#a1a1a1;stop-opacity:1"
         offset="0"
         id="stop4664" />
      <stop
         style="stop-color:#868686;stop-opacity:1"
         offset="1"
         id="stop4666" />
    </linearGradient>
    <linearGradient
       inkscape:collect="always"
       xlink:href="#linearGradient4668"
       id="linearGradient4670"
       x1="83.5215"
       y1="132.77649"
       x2="445.40399"
       y2="124.22386"
       gradientUnits="userSpaceOnUse" />
  </defs>
  <sodipodi:namedview
     id="base"
     pagecolor="#ffffff"
     bordercolor="#666666"
     borderopacity="1.0"
     inkscape:pageopacity="0.0"
     inkscape:pageshadow="2"
     inkscape:zoom="0.98994949"
     inkscape:cx="424.29547"
     inkscape:cy="465.70131"
     inkscape:document-units="mm"
     inkscape:current-layer="layer2"
     showgrid="false"
     inkscape:snap-bbox="false"
     inkscape:window-width="3240"
     inkscape:window-height="2032"
     inkscape:window-x="0"
     inkscape:window-y="54"
     inkscape:window-maximized="1"
     inkscape:snap-page="false" />
  <metadata
     id="metadata5">
    <rdf:RDF>
      <cc:Work
         rdf:about="">
        <dc:format>image/svg+xml</dc:format>
        <dc:type
           rdf:resource="http://purl.org/dc/dcmitype/StillImage" />
        <dc:title></dc:title>
      </cc:Work>
    </rdf:RDF>
  </metadata>
  <g
     inkscape:groupmode="layer"
     id="layer2"
     inkscape:label="Layer 2">
    <path
       style="fill:url(#linearGradient4670);stroke:#000000;stroke-width:0.26458332px;stroke-linecap:butt;stroke-linejoin:miter;stroke-opacity:1;fill-opacity:1"
       d="m 103.99847,223.90345 -15.799527,-52.99463 -4.543581,-22.98518 5.078121,-41.96132 12.828937,-32.07234 8.28536,-16.036171 15.9376,-19.30306 8.38392,4.603237 14.96709,20.847023 11.75986,38.754081 -2.13815,62.54107 -8.55263,41.96131 -12.65737,16.1735 -9.526,3.60445 z"
       id="path4627"
       inkscape:connector-curvature="0" />
    <path
       style="fill:#b05a5a;stroke:none;stroke-width:0.26458332px;stroke-linecap:butt;stroke-linejoin:miter;stroke-opacity:0.80987656;fill-opacity:1"
       d="m 50.781209,251.08968 7.750817,-46.5049 9.354434,-29.39965 13.432676,-20.73262 v 0 l 6.879807,16.45631 4.229015,19.9431 -10.108946,8.92201 -19.510673,44.63401 z"
       id="path4672"
       inkscape:connector-curvature="0" />
    <path
       style="fill:#b86053;stroke:#000000;stroke-width:0.26458332px;stroke-linecap:butt;stroke-linejoin:miter;stroke-opacity:1;fill-opacity:1"
       d="m 187.72187,262.20432 -16.93664,-43.45426 -16.91615,-24.12243 9.23152,-33.15786 10.62459,8.90451 9.08716,18.17433 9.08717,33.94323 -4.7141,40.6314 z"
       id="path4674"
       inkscape:connector-curvature="0" />
  </g>
  <g
     inkscape:label="Layer 1"
     inkscape:groupmode="layer"
     id="layer1"
     transform="translate(0,3)">
    <path
       style="fill:#858585;fill-opacity:1;stroke:#858585;stroke-width:6.33777332;stroke-linejoin:round;stroke-miterlimit:4;stroke-dasharray:none;stroke-opacity:1"
       id="path4610"
       d="m 102.5634,217.76187 c -1.61744,-5.31614 -3.856888,-10.40632 -5.983544,-15.52772 -3.008678,-7.29251 -5.773129,-14.70065 -7.948664,-22.29328 -0.440749,-1.53822 -0.821804,-3.09319 -1.232707,-4.63978 -1.196816,-4.87755 -2.055647,-9.83871 -2.680962,-14.82225 -0.210933,-1.68109 -0.421848,-3.36382 -0.542848,-5.05391 -0.310748,-4.34039 -0.313429,-8.978 -0.377465,-13.31723 -0.01167,-8.39205 0.162742,-16.83459 1.421492,-25.14733 0.712921,-4.70813 1.199816,-6.39094 2.275351,-11.00836 1.576723,-6.400959 3.571382,-12.705073 6.029425,-18.81907 1.419483,-3.530743 2.22201,-5.184981 3.80316,-8.652005 3.068312,-6.475251 6.411422,-12.830109 10.056532,-18.995993 0.70642,-1.194933 1.44471,-2.370421 2.16706,-3.555633 3.45733,-5.446719 7.12924,-10.756269 11.06055,-15.866094 0.99284,-1.271068 2.03202,-2.510195 3.1894,-3.633508 0.25208,-0.244657 0.94257,-0.886071 1.29846,-1.092977 1.03332,-0.600737 2.09484,-1.150811 3.14225,-1.726216 0.13935,0.0078 0.2834,-0.01357 0.41805,0.02344 0.45367,0.124678 1.08991,0.740603 1.44423,1.031869 1.68219,1.38283 -0.27461,-0.202564 1.77994,1.45331 2.38221,1.932902 4.71493,3.9431 6.89381,6.108885 0.51749,0.514376 1.01259,1.05114 1.51888,1.57671 1.92737,2.022451 3.63695,4.246043 5.03305,6.674239 0.87679,1.524988 1.21597,2.334699 1.97628,3.948584 2.25283,4.855963 4.23055,9.831068 6.07196,14.8578 2.06682,5.53297 3.44718,11.292289 4.88314,17.015126 1.26764,5.020035 2.46898,10.064493 3.32714,15.174683 0.17415,1.03704 0.32006,2.07872 0.48009,3.11807 0.98586,6.5762 1.34462,13.22537 1.49477,19.86761 0.1046,6.43212 -0.36425,12.85747 -0.84178,19.26729 -0.42488,5.93216 -1.00568,11.849 -1.77376,17.74565 -0.81488,6.08022 -1.73569,12.14742 -2.77741,18.19234 -0.53664,3.16683 -1.28349,6.29177 -2.07914,9.40091 -0.5173,2.02146 -1.08218,4.14585 -1.69987,6.13929 -0.31152,1.00534 -0.65939,1.99888 -0.98908,2.99834 -1.45571,4.55145 -3.58408,8.82504 -5.93495,12.9629 -0.97962,1.62087 -1.97018,3.25416 -3.18156,4.71443 -0.6614,0.7973 -0.86659,0.94825 -1.61423,1.65389 -1.04264,0.89912 -2.13755,1.74317 -3.29963,2.48071 -1.14076,0.72403 -3.85019,2.13087 -4.24002,2.3423 -1.90189,0.75646 -3.95049,0.90675 -5.96634,1.08246 -2.30055,0.17471 -4.60188,0.33711 -6.9046,0.48105 -2.07215,0.15146 -4.13979,0.35642 -6.21659,0.42607 -1.64176,-0.004 -3.28922,-0.19281 -4.88694,-0.5728 -1.34813,-0.36981 -2.69867,-0.74155 -4.01729,-1.20878 -1.16902,-0.40689 -2.19034,-0.85586 -3.14057,-1.66344 -0.94456,-0.94807 -1.51539,-2.04998 -2.02868,-3.27377 -0.41297,-1.0734 -0.21463,-0.54894 -0.59588,-1.57307 0,0 2.70447,-1.51255 2.70447,-1.51255 v 0 c 0.36742,1.02074 0.1731,0.50028 0.58481,1.56069 0.49623,1.14589 1.07387,2.2522 1.97782,3.13135 0.90729,0.73724 1.96771,1.20563 3.06948,1.57633 1.31378,0.44871 2.64865,0.836 3.9917,1.18527 1.58292,0.34928 3.20507,0.5403 4.82713,0.51673 2.06721,-0.078 4.1271,-0.27408 6.19055,-0.41757 2.30243,-0.15054 4.60442,-0.30648 6.90446,-0.49095 2.00881,-0.18805 4.04533,-0.37149 5.92377,-1.17494 -0.60794,0.38639 -1.22907,0.75247 -1.82382,1.15918 -0.24716,0.16902 0.52446,-0.28869 0.77964,-0.44514 1.1749,-0.72031 2.27329,-1.56318 3.33487,-2.44137 0.72605,-0.65706 0.99738,-0.86152 1.64044,-1.61005 1.24158,-1.44521 2.24784,-3.08259 3.24983,-4.69807 2.3986,-4.13343 4.591,-8.39679 6.0757,-12.96205 0.33176,-0.9965 0.68208,-1.98693 0.99529,-2.98951 1.58746,-5.08133 2.80308,-10.28483 3.79908,-15.51331 1.03037,-6.03864 1.93817,-12.09845 2.7585,-18.16973 0.7625,-5.89665 1.35908,-11.81012 1.79939,-17.74048 0.47127,-6.40622 0.95865,-12.82438 0.87541,-19.25291 -0.15781,-6.62811 -0.50461,-13.26035 -1.50083,-19.82188 -0.16064,-1.03608 -0.30796,-2.07436 -0.48191,-3.10826 -0.85892,-5.105181 -2.04542,-10.144407 -3.31324,-15.159845 -1.45298,-5.707015 -2.83838,-11.449779 -4.88907,-16.976809 -1.85324,-5.011087 -3.82899,-9.973794 -6.10801,-14.806373 -0.76843,-1.599115 -1.11124,-2.391825 -1.98216,-3.907568 -1.38488,-2.410249 -3.07616,-4.616491 -4.98724,-6.626229 -0.50652,-0.520227 -1.00186,-1.051745 -1.51954,-1.560684 -2.1902,-2.153221 -4.52998,-4.152386 -6.94221,-6.046632 -2.31614,-1.786113 0.0519,0.04568 -1.82878,-1.422927 -0.32789,-0.256033 -0.89261,-0.803275 -1.34756,-0.831443 -0.11655,-0.0072 -0.231,0.03458 -0.3465,0.05187 0.73193,-0.453652 1.45638,-0.919787 2.19578,-1.360957 0.21101,-0.125903 -0.41595,0.263372 -0.60984,0.414689 -1.55498,1.213584 -2.80011,2.788218 -4.05887,4.291978 -4.00503,5.107044 -7.72331,10.435119 -11.2268,15.903696 -0.72392,1.183087 -1.46465,2.355888 -2.17176,3.549259 -3.65576,6.169843 -7.01528,12.525622 -10.116094,18.994864 -1.594293,3.49152 -2.366408,5.08003 -3.803373,8.633147 -2.474764,6.119223 -4.516162,12.416898 -6.123004,18.822864 -1.09741,4.65782 -1.564442,6.24186 -2.304072,10.99114 -1.295112,8.31612 -1.559613,16.76064 -1.53657,25.16403 0.120199,5.59009 0.079,7.74152 0.52351,13.21452 0.136847,1.6849 0.337837,3.36421 0.54627,5.04165 0.618031,4.97381 1.462824,9.92266 2.681536,14.78506 0.41022,1.54308 0.793322,3.09375 1.23066,4.62925 2.159993,7.58375 4.8958,14.99112 8.009057,22.22691 2.17968,5.0948 4.40821,10.17199 6.2568,15.40181 0,0 -2.71521,1.50721 -2.71521,1.50721 z"
       inkscape:connector-curvature="0" />
    <path
       style="fill:#858585;fill-opacity:1;stroke:#858585;stroke-width:6.33777332;stroke-linejoin:round;stroke-miterlimit:4;stroke-dasharray:none;stroke-opacity:1"
       id="path4612"
       d="m 165.73189,156.75807 c 1.5666,0.9177 2.88373,2.16809 4.10098,3.50508 1.27604,1.50903 2.47586,3.09735 3.54833,4.76105 0.68036,1.05543 1.19137,1.97786 1.81503,3.06484 1.82788,3.33403 3.48507,6.75932 5.09457,10.20456 2.28973,5.2642 4.17169,10.7001 5.89462,16.17605 0.24706,0.86268 0.50626,1.72193 0.74121,2.58805 0.46587,1.71731 0.76949,2.97354 1.08723,4.72169 0.43816,2.41075 0.71542,4.85044 1.00971,7.28184 0.51926,4.26983 1.18646,8.52152 1.5003,12.81463 0.0598,0.81771 0.0926,1.63718 0.13889,2.45577 0.14264,4.01722 0.19864,8.03825 0.18889,12.058 -0.0351,3.02133 -0.28316,6.03546 -0.52141,9.04606 -0.15329,2.26927 -0.29152,4.53703 -0.63799,6.78609 -0.17759,1.35944 -0.48452,2.68936 -0.86387,4.00384 -0.32062,1.01203 -0.78665,1.96681 -1.10651,2.9787 -0.10473,0.42509 -0.22303,0.84692 -0.32212,1.27345 -0.009,0.0409 0.013,0.10818 -0.0259,0.12352 -0.96526,0.38062 -1.95486,0.69533 -2.93228,1.04301 -0.42173,-1.56362 -0.95365,-3.09251 -1.42023,-4.64275 -1.0712,-3.8964 -2.36145,-7.72604 -3.58716,-11.57452 -1.61276,-4.92902 -2.93733,-9.94271 -4.23614,-14.96235 -0.22161,-0.76768 -0.42947,-1.53951 -0.66483,-2.30302 -0.45247,-1.46778 -1.03611,-3.18181 -1.60769,-4.6096 -0.98428,-2.45871 -2.17031,-4.82904 -3.33284,-7.20467 -1.49665,-2.95861 -2.92453,-5.96143 -4.64105,-8.80035 -0.91072,-1.50623 -1.49948,-2.34323 -2.48497,-3.80912 -2.15449,-3.08435 -4.27676,-6.19169 -6.45784,-9.25709 -0.51611,-0.72023 -1.04449,-1.4316 -1.59124,-2.12852 -0.18413,-0.23469 -0.40417,-0.46108 -0.5485,-0.72468 2.76295,-1.68424 2.10971,-2.10289 3.5158,-1.19646 0,0 -2.63702,1.7125 -2.63702,1.7125 v 0 c -1.29008,-0.79643 -1.1826,-0.0705 1.87215,-2.07939 0.0583,0.21913 0.35109,0.53011 0.46754,0.68969 0.52298,0.71671 1.03781,1.43954 1.53825,2.17246 2.12367,3.1052 4.23692,6.21752 6.38307,9.30701 0.99421,1.47064 1.5897,2.3077 2.49988,3.82531 1.70967,2.85063 3.10503,5.87912 4.60907,8.84074 1.1742,2.37849 2.38552,4.75006 3.37656,7.2147 0.90865,2.25976 1.64028,4.59351 2.27864,6.94344 1.30181,5.01372 2.59254,10.03312 4.21382,14.95466 1.25721,3.83011 2.60082,7.63333 3.70676,11.51209 0.49387,1.53457 1.0503,3.04768 1.49182,4.59886 -0.89694,0.59577 -1.7911,1.19579 -2.69082,1.78727 -0.0263,0.0173 0.0573,-0.035 0.0696,-0.0641 0.11432,-0.27086 0.16617,-0.62052 0.23854,-0.90513 0.033,-0.12948 0.0613,-0.26012 0.092,-0.39019 0.29848,-1.02255 0.77567,-1.97345 1.11843,-2.98072 0.38778,-1.30874 0.73357,-2.6271 0.91408,-3.98433 0.37314,-2.24524 0.53238,-4.51066 0.68107,-6.78087 0.25493,-3.00809 0.5158,-6.0207 0.56302,-9.04065 0.0272,-4.02513 0.0135,-8.05209 -0.11634,-12.07542 -0.12587,-2.38671 -0.10981,-2.56172 -0.33957,-4.96101 -0.3297,-3.44311 -0.87435,-6.85965 -1.28877,-10.29261 -0.29835,-2.42328 -0.57263,-4.85326 -1.00593,-7.2571 -0.29382,-1.63002 -0.62985,-3.11335 -1.05152,-4.71563 -0.22802,-0.86644 -0.48416,-1.72513 -0.72624,-2.58769 -1.68651,-5.47213 -3.54437,-10.89985 -5.94284,-16.10287 -1.60593,-3.43758 -3.27947,-6.84448 -5.10396,-10.17043 -0.67644,-1.18724 -1.05473,-1.89242 -1.80545,-3.04138 -1.077,-1.64832 -2.28997,-3.20631 -3.57306,-4.69541 -1.22035,-1.30942 -2.53415,-2.53861 -4.11706,-3.3952 0,0 2.63127,-1.71172 2.63127,-1.71172 z"
       inkscape:connector-curvature="0" />
    <path
       style="fill:#858585;fill-opacity:1;stroke:#858585;stroke-width:6.33777332;stroke-linejoin:round;stroke-miterlimit:4;stroke-dasharray:none;stroke-opacity:1"
       id="path4614"
       d="m 84.222776,150.25882 c -1.187029,1.00702 -2.243769,2.14192 -3.259818,3.31973 -2.116397,2.6322 -3.835409,5.55543 -5.505858,8.48611 -1.584317,2.90137 -3.199317,5.79031 -4.638489,8.76912 -0.933589,1.93235 -1.174971,2.55494 -2.029557,4.54226 -1.990264,4.73447 -3.505258,9.64473 -5.037317,14.54255 -1.441793,4.51454 -2.964905,9.00986 -4.175623,13.59557 -0.269605,1.02115 -0.506708,2.05075 -0.760063,3.07612 -1.48158,6.40006 -2.288382,12.9251 -2.984292,19.45052 -0.522158,5.90008 -0.876458,11.81349 -1.302754,17.72107 -0.365744,4.02535 -0.543758,8.06098 -0.584723,12.10178 0.03854,0.99053 0.04424,1.99224 0.224254,2.97086 0.03565,0.19379 0.142372,0.66526 0.273498,0.86092 0.03908,0.0583 0.111854,0.0842 0.167781,0.12636 0.07348,-0.009 0.148576,-0.01 0.220423,-0.028 0.207468,-0.0523 0.755708,-0.40391 0.566503,-0.30347 -0.786784,0.41772 -1.531076,0.91888 -2.339577,1.2921 -0.148367,0.0685 0.231563,-0.2333 0.330016,-0.36447 0.124887,-0.16639 0.225178,-0.35015 0.337767,-0.52522 1.20989,-2.30619 2.020137,-4.79463 2.94167,-7.22467 0.3104,-0.81852 0.630046,-1.63342 0.945068,-2.45015 2.6285,-6.32027 5.190549,-12.66914 7.864792,-18.96989 3.004138,-6.72313 5.977911,-13.46119 9.042767,-20.15658 2.212232,-4.78785 4.792551,-9.39128 7.394441,-13.97205 1.40153,-2.32753 2.974188,-4.59329 4.986493,-6.43188 0.249546,-0.228 0.519242,-0.43255 0.778865,-0.64883 0.494456,-0.38065 0.998087,-0.75843 1.537213,-1.07413 0.96999,-0.56803 1.933215,-1.14852 2.917962,-1.69014 0.04821,-0.0265 0.116792,-0.0324 0.164652,-0.006 0.06486,0.0367 0.09199,0.11791 0.137989,0.17687 0.0564,0.30972 0.07744,0.17582 -0.0089,0.40664 0,0 -2.882141,1.29514 -2.882141,1.29514 v 0 c 0.107335,-0.12143 0.04331,-0.10674 0.193426,-0.0375 0.01736,0.0298 0.06359,0.0568 0.05207,0.0894 -0.01363,0.0385 -0.14044,0.0817 -0.105395,0.0612 0.815025,-0.47794 1.628978,-0.95774 2.44533,-1.43337 0.131882,-0.0769 -0.26201,0.15671 -0.391875,0.23697 -0.703094,0.43452 -0.462529,0.28273 -1.209954,0.82136 -0.269127,0.21017 -0.549565,0.40641 -0.807381,0.63053 -2.066937,1.7968 -3.66873,4.06303 -5.097452,6.38635 -2.640926,4.58961 -5.271174,9.19765 -7.51781,13.99942 -3.084106,6.69427 -6.078685,13.4308 -9.078381,20.16363 -2.653989,6.27703 -5.188355,12.60501 -7.768147,18.9132 -0.958725,2.54677 -0.810751,2.12486 -1.682416,4.54399 -0.619812,1.72015 -1.203951,3.45633 -2.011313,5.09985 -0.947427,1.73567 -1.059415,1.3221 -3.613829,2.84332 -0.338733,0.20173 -0.677083,0.1887 -1.017903,0.0186 -0.07476,-0.0823 -0.16728,-0.1513 -0.224275,-0.24697 -0.141417,-0.2374 -0.241907,-0.70337 -0.282465,-0.95008 -0.165115,-1.00438 -0.148186,-2.02883 -0.185014,-3.04219 0.0897,-4.06417 0.297749,-8.12201 0.680753,-12.16988 0.44177,-5.91808 0.837037,-11.83988 1.344795,-17.7527 0.686145,-6.53651 1.523091,-13.06446 2.962074,-19.48281 0.246289,-1.02563 0.47536,-2.0556 0.738866,-3.07687 1.183992,-4.58877 2.719438,-9.07632 4.14643,-13.59094 1.515952,-4.90773 3.036356,-9.8195 5.012758,-14.56448 0.827779,-1.95006 1.101362,-2.66033 2.014985,-4.55581 1.43501,-2.97722 3.054615,-5.85981 4.611502,-8.77248 1.634156,-2.92996 3.32421,-5.84455 5.384506,-8.49657 0.989927,-1.17941 2.011004,-2.32401 3.179434,-3.32972 0,0 2.903672,-1.19425 2.903672,-1.19425 z"
       inkscape:connector-curvature="0" />
    <path
       style="fill:#858585;fill-opacity:1;stroke:#858585;stroke-width:6.33777332;stroke-linejoin:round;stroke-miterlimit:4;stroke-dasharray:none;stroke-opacity:1"
       id="path4616"
       d="m 211.43715,145.54354 c 0.68582,-3.98729 1.12599,-8.01954 1.30016,-12.06322 0.0663,-1.5395 0.078,-3.0809 0.11708,-4.62135 0.0421,-4.96426 -0.076,-9.92752 -0.21457,-14.88928 -0.0633,-2.26876 -0.19324,-5.9255 -0.21288,-8.26809 -0.008,-0.97018 0.0157,-1.94037 0.0236,-2.91055 0.0788,-1.31288 0.0574,-2.11035 0.32688,-3.323813 0.0484,-0.217727 0.0413,-0.496382 0.21641,-0.632811 2.70498,-2.106836 2.09032,-2.516574 3.16024,-1.4858 0,0 -2.65656,1.69871 -2.65656,1.69871 v 0 c -0.99872,0.02769 -1.27558,0.05046 2.31662,-1.522219 0.20353,-0.0891 -0.2287,0.387948 -0.29553,0.601217 -0.36812,1.174915 -0.36616,2.074476 -0.48987,3.347826 -0.0345,0.98006 -0.0917,1.95957 -0.10346,2.94017 -0.0307,2.55079 0.0658,5.80051 0.1211,8.31208 0.1091,4.96189 0.25058,9.92394 0.24289,14.88756 -0.0145,1.53195 -0.004,3.06435 -0.0435,4.59584 -0.10369,4.00258 -0.4734,7.99144 -1.0208,11.95569 0,0 -2.78775,1.37804 -2.78775,1.37804 z"
       inkscape:connector-curvature="0" />
    <path
       style="fill:#858585;fill-opacity:1;stroke:#858585;stroke-width:6.33777332;stroke-linejoin:round;stroke-miterlimit:4;stroke-dasharray:none;stroke-opacity:1"
       id="path4618"
       d="m 192.18884,119.43058 c 3.05264,-0.14311 6.0994,-0.36108 9.15345,-0.48142 5.39496,-0.23504 10.79297,0.0631 16.18809,0.13214 1.17164,0.015 2.34345,0.0107 3.51518,0.0159 3.80072,-2.1e-4 7.60777,-0.081 11.39566,-0.4186 1.06599,-0.095 2.12826,-0.22853 3.19259,-0.34085 0.29222,-0.03 0.58444,-0.06 0.87666,-0.09 0,0 -2.48024,1.85075 -2.48024,1.85075 v 0 c -0.28068,0.022 -0.56137,0.0439 -0.84205,0.0659 -1.03928,0.0877 -2.07685,0.19634 -3.11687,0.27472 -3.76476,0.28371 -7.54349,0.35815 -11.31753,0.33448 -1.17149,-0.007 -2.34308,-0.006 -3.51447,-0.0221 -5.42053,-0.078 -10.84606,-0.32918 -16.26535,-0.0517 -3.10558,0.15599 -6.2051,0.38657 -9.3069,0.60349 0,0 2.52178,-1.87263 2.52178,-1.87263 z"
       inkscape:connector-curvature="0" />
  </g>
</svg>
